<svg width="260" height="72" viewBox="0 0 260 72" fill="none" xmlns="http://www.w3.org/2000/svg">
<path d="M40.8696 24.9954C41.8382 25.4895 42.733 26.1076 43.533 26.829C44.7598 22.6858 45.1631 18.371 44.7685 14.1322C43.9933 13.7975 43.1983 13.5026 42.3863 13.2497C41.3921 8.82317 39.4239 4.50352 36.7049 0.756258C36.2284 0.737173 35.7495 0.727539 35.2684 0.727539C33.6196 0.727539 31.9972 0.840661 30.4086 1.05959C33.4279 4.30978 35.5936 8.1706 36.8267 12.2955C37.6963 12.3434 38.5909 12.4625 39.4815 12.6303L39.5026 12.6374C39.5146 12.6416 39.5267 12.646 39.539 12.6506L39.5596 12.6586L39.5708 12.663L39.5927 12.6722C40.7882 16.4399 41.2719 20.5023 40.8987 24.6858C40.8895 24.7892 40.8798 24.8924 40.8696 24.9954Z" fill="white"/>
<path d="M37.8881 23.9331C36.8815 19.7113 35.0686 15.754 32.5968 12.2655C31.7581 12.3632 30.9222 12.5053 30.0925 12.6923C27.0233 9.3615 23.1668 6.60831 18.9468 4.72285C17.0745 5.70188 15.301 6.84409 13.6453 8.13061C17.8768 9.43671 21.6755 11.6948 24.8006 14.6457C25.5777 14.2524 26.4119 13.9082 27.2671 13.6083C27.2874 13.6041 27.308 13.6002 27.3291 13.5968C27.3473 13.5938 27.3657 13.5912 27.3844 13.589C30.3036 16.2541 32.7537 19.5304 34.5223 23.34C34.5731 23.4494 34.6232 23.559 34.6726 23.6687C34.87 23.6594 35.0687 23.6546 35.2684 23.6546C36.1673 23.6546 37.0438 23.7507 37.8881 23.9331Z" fill="white"/>
<path d="M31.5597 24.2214C28.5708 21.0534 25.0111 18.5216 21.1129 16.7303C20.4355 17.2342 19.7826 17.7752 19.1576 18.352C14.8376 17.0031 10.1253 16.5467 5.53136 17.022C4.40098 18.7896 3.42384 20.6646 2.61876 22.6284C6.94096 21.6403 11.3649 21.6956 15.5514 22.6896C16.0277 21.9605 16.5781 21.2454 17.1688 20.5581C17.1794 20.5485 17.1902 20.5391 17.2013 20.5298C17.2203 20.5138 17.2401 20.498 17.2606 20.4826C21.1214 21.3311 24.8814 22.9434 28.3178 25.3583C28.4247 25.4334 28.5309 25.5091 28.6366 25.5853C29.538 25.0101 30.5192 24.5487 31.5597 24.2214Z" fill="white"/>
<path d="M26.215 27.6069C22.0359 26.3527 17.6796 25.9379 13.4007 26.3363C13.0659 27.1115 12.771 27.9065 12.5181 28.7185C8.09442 29.7121 3.77742 31.6784 0.0318383 34.3947C0.00798463 34.9268 -0.00402832 35.462 -0.00402832 36C-0.00402832 37.5985 0.102323 39.1723 0.308308 40.7145C3.56261 37.6857 7.43069 35.5136 11.5639 34.278C11.6118 33.4085 11.7309 32.5139 11.8988 31.6233C11.9107 31.5866 11.9247 31.5495 11.9406 31.5121C15.7083 30.3165 19.7707 29.8328 23.9543 30.206C24.0846 30.2176 24.2147 30.2301 24.3446 30.2433C24.852 29.2824 25.4824 28.3967 26.215 27.6069Z" fill="white"/>
<path d="M23.2475 33.176C18.9954 34.1897 15.0123 36.0214 11.5062 38.5198C11.6062 39.3582 11.7505 40.1938 11.9398 41.023C8.59612 44.1207 5.83965 48.0142 3.96477 52.2708C4.94617 54.1551 6.09274 55.9396 7.38523 57.6053C8.6738 53.321 10.9365 49.4729 13.9074 46.3095C13.5121 45.5336 13.1656 44.7002 12.8635 43.8458C12.8553 43.8081 12.8487 43.769 12.8438 43.7286C15.5011 40.8022 18.7707 38.3433 22.5755 36.5645C22.6933 36.5094 22.8113 36.4551 22.9295 36.4017C22.9252 36.2683 22.923 36.1344 22.923 36C22.923 35.0283 23.0353 34.0829 23.2475 33.176Z" fill="white"/>
<path d="M23.4396 39.5449C20.2817 42.5415 17.7611 46.1065 15.9811 50.0076C16.4869 50.6837 17.0297 51.3352 17.6082 51.9586C16.2538 56.3376 15.816 61.1166 16.3341 65.7649C18.1124 66.8984 19.999 67.877 21.9751 68.6816C20.9283 64.3001 20.9578 59.8056 21.9555 55.5531C21.2251 55.0787 20.5084 54.5303 19.8195 53.9415C19.8032 53.9234 19.7872 53.9046 19.7713 53.885L19.7617 53.8728C19.7557 53.8652 19.7497 53.8576 19.7438 53.8498C20.5819 49.9868 22.1841 46.2225 24.5897 42.7796C24.6523 42.6901 24.7152 42.601 24.7785 42.5124C24.2086 41.5964 23.7554 40.6003 23.4396 39.5449Z" fill="white"/>
<path d="M26.8095 44.992C25.5877 49.1467 25.1934 53.4719 25.6003 57.7189C26.3764 58.0515 27.1722 58.3443 27.9849 58.595C29.0064 63.0862 31.0314 67.4644 33.8251 71.2434C34.3038 71.2627 34.785 71.2724 35.2684 71.2724C36.9307 71.2724 38.5661 71.1574 40.1671 70.935C37.0495 67.6555 34.8146 63.7333 33.547 59.5342C32.6773 59.4886 31.7824 59.372 30.8914 59.2065C30.8547 59.1946 30.8175 59.1808 30.78 59.1649C29.5743 55.4004 29.0797 51.3394 29.4416 47.1549C29.449 47.0694 29.4567 46.9841 29.4648 46.8989C28.4953 46.3816 27.603 45.7387 26.8095 44.992Z" fill="white"/>
<path d="M32.4886 48.0311C33.5105 52.2172 35.326 56.139 37.79 59.5967C38.6284 59.4967 39.4641 59.3524 40.2932 59.1631C43.4324 62.5515 47.3887 65.3369 51.7121 67.213C53.5907 66.2212 55.3689 65.0648 57.0276 63.763C52.6823 62.4825 48.7804 60.2015 45.5797 57.1955C44.8037 57.5908 43.9704 57.9372 43.116 58.2394C43.1088 58.241 43.1016 58.2425 43.0943 58.2439C43.0826 58.2462 43.0707 58.2484 43.0587 58.2504C43.0391 58.2537 43.0191 58.2566 42.9988 58.2592C40.0724 55.6018 37.6135 52.3322 35.8346 48.5274C35.8049 48.4637 35.7754 48.4 35.7461 48.3362C35.5876 48.3423 35.4283 48.3453 35.2684 48.3453C34.3125 48.3453 33.382 48.2367 32.4886 48.0311Z" fill="white"/>
<path d="M38.9342 47.7919C41.9056 50.8905 45.4272 53.3675 49.2761 55.1237C49.9521 54.6179 50.6036 54.0751 51.2271 53.4966C55.6411 54.8619 60.4615 55.2958 65.1449 54.7581C66.2655 52.977 67.2313 51.0887 68.0232 49.1121C63.6186 50.1768 59.0976 50.1525 54.8215 49.1493C54.3472 49.8797 53.7986 50.5964 53.2099 51.2853C53.1813 51.3112 53.1507 51.3364 53.1182 51.361C49.2553 50.5228 45.4909 48.9207 42.048 46.515C41.9995 46.4811 41.9511 46.4471 41.9028 46.413C40.9883 46.9968 39.9917 47.4636 38.9342 47.7919Z" fill="white"/>
<path d="M44.3798 44.3301C48.4979 45.5245 52.7811 45.9075 56.9873 45.5044C57.3199 44.7284 57.6127 43.9326 57.8634 43.1199C62.3571 42.0978 66.7378 40.0711 70.5183 37.275C70.5332 36.8518 70.5408 36.4268 70.5408 36C70.5408 34.2877 70.4188 32.604 70.183 30.957C66.9077 34.0645 62.993 36.2928 58.8026 37.5578C58.757 38.4275 58.6403 39.3223 58.4749 40.2133C58.4709 40.2256 58.4667 40.2379 58.4623 40.2503L58.4582 40.2617L58.4521 40.2782C58.4462 40.2936 58.4399 40.3092 58.4333 40.3247C54.6688 41.5304 50.6078 42.025 46.4233 41.6632C46.3652 41.6581 46.3071 41.653 46.2491 41.6476C45.7454 42.6249 45.1151 43.5263 44.3798 44.3301Z" fill="white"/>
<path d="M47.3446 38.5758C51.5009 37.5611 55.3971 35.7642 58.8375 33.3266C58.7397 32.4879 58.5976 31.652 58.4106 30.8223C61.7859 27.7121 64.5682 23.7933 66.4553 19.507C65.4661 17.6403 64.3142 15.873 63.0184 14.2241C61.7198 18.5163 59.4431 22.3682 56.4573 25.5305C56.8505 26.3075 57.1947 27.1418 57.4945 27.997C57.5026 28.0347 57.5091 28.0738 57.514 28.1143C54.8487 31.0335 51.5724 33.4836 47.7629 35.2521C47.7072 35.278 47.6516 35.3036 47.5958 35.3291C47.6077 35.5512 47.6137 35.7749 47.6137 36C47.6137 36.8833 47.521 37.745 47.3446 38.5758Z" fill="white"/>
<path d="M47.0089 32.1723C50.1184 29.2081 52.6069 25.6911 54.3746 21.8445C53.8706 21.1671 53.3295 20.5141 52.7527 19.8891C54.1126 15.5343 54.5654 10.7807 54.0711 6.15155C52.3007 5.03398 50.424 4.06957 48.4596 3.27692C49.465 7.62241 49.4148 12.0728 48.4151 16.283C49.1443 16.7593 49.8594 17.3097 50.5468 17.9003C50.5725 17.929 50.5978 17.9597 50.6222 17.9922C49.7737 21.8529 48.1613 25.6129 45.7464 29.0494C45.6997 29.1159 45.6527 29.1822 45.6055 29.2482C46.1946 30.1482 46.6692 31.1298 47.0089 32.1723Z" fill="white"/>
<path d="M95.7001 25.0235L92.6398 42.3358H112.412L111.662 46.6263H86.4589L90.2694 25.0235H95.7001Z" fill="white"/>
<path d="M125.911 25.0235L122.1 46.6263H116.67L120.48 25.0235H125.911Z" fill="white"/>
<path d="M159.314 25.0235L158.564 29.3141H147.072L144.012 46.6263H138.581L141.642 29.3141H129.97L130.72 25.0235H159.314Z" fill="white"/>
<path d="M193.073 25.0235L189.263 46.6263H183.832L185.362 37.9552H173.391L169.82 33.6647H186.112L187.642 25.0235H193.073ZM169.85 25.0235L166.04 46.6263H160.609L164.419 25.0235H169.85Z" fill="white"/>
<path d="M220.494 25.0235C221.394 25.0235 222.214 25.2036 222.955 25.5636C223.695 25.9037 224.305 26.3737 224.785 26.9738C225.285 27.5739 225.635 28.284 225.835 29.1041C226.055 29.9042 226.085 30.7543 225.925 31.6544L224.455 40.0255C224.295 40.9456 223.965 41.8057 223.465 42.6058C222.985 43.4059 222.384 44.106 221.664 44.7061C220.964 45.3062 220.184 45.7762 219.324 46.1163C218.464 46.4563 217.584 46.6263 216.684 46.6263H201.232C200.332 46.6263 199.512 46.4563 198.771 46.1163C198.031 45.7762 197.411 45.3062 196.911 44.7061C196.411 44.106 196.061 43.4059 195.861 42.6058C195.661 41.8057 195.641 40.9456 195.801 40.0255L197.271 31.6544C197.431 30.7543 197.751 29.9042 198.231 29.1041C198.731 28.284 199.331 27.5739 200.032 26.9738C200.732 26.3737 201.512 25.9037 202.372 25.5636C203.252 25.2036 204.142 25.0235 205.042 25.0235H220.494ZM220.584 31.2343C220.684 30.7143 220.574 30.2642 220.254 29.8842C219.954 29.5041 219.534 29.3141 218.994 29.3141H205.042C204.502 29.3141 204.012 29.5041 203.572 29.8842C203.132 30.2642 202.862 30.7143 202.762 31.2343L201.172 40.3855C201.072 40.9056 201.172 41.3557 201.472 41.7357C201.772 42.1158 202.192 42.3158 202.732 42.3358H216.684C217.224 42.3158 217.714 42.1158 218.154 41.7357C218.614 41.3557 218.894 40.9056 218.994 40.3855L220.584 31.2343Z" fill="white"/>
<path d="M260 25.0235L259.25 29.3141H238.577C238.137 29.3141 237.737 29.4741 237.377 29.7942C237.017 30.0942 236.787 30.4642 236.687 30.9043L236.477 32.0745C236.397 32.5145 236.487 32.8946 236.747 33.2146C237.007 33.5146 237.357 33.6647 237.797 33.6647H253.999C254.979 33.6647 255.789 33.8047 256.43 34.0847C257.09 34.3447 257.6 34.7148 257.96 35.1949C258.32 35.6749 258.54 36.255 258.62 36.9351C258.72 37.6152 258.7 38.3653 258.56 39.1854L258.23 41.0756C258.11 41.7557 257.88 42.4258 257.54 43.0859C257.22 43.746 256.79 44.346 256.25 44.8861C255.709 45.4062 255.059 45.8262 254.299 46.1463C253.559 46.4663 252.699 46.6263 251.719 46.6263H229.036L229.786 42.3358H251.029C251.469 42.3358 251.869 42.1858 252.229 41.8857C252.589 41.5657 252.809 41.1856 252.889 40.7456L253.099 39.5454C253.179 39.1054 253.089 38.7353 252.829 38.4353C252.589 38.1152 252.249 37.9552 251.809 37.9552H235.607C234.847 37.9552 234.147 37.8452 233.507 37.6252C232.867 37.3851 232.326 37.0551 231.886 36.635C231.466 36.215 231.166 35.7149 230.986 35.1348C230.806 34.5548 230.776 33.9047 230.896 33.1846L231.406 30.3042C231.546 29.5441 231.816 28.844 232.216 28.204C232.617 27.5439 233.107 26.9838 233.687 26.5237C234.287 26.0437 234.947 25.6736 235.667 25.4136C236.387 25.1536 237.127 25.0235 237.887 25.0235H260Z" fill="white"/>
</svg>
