<svg width="260" height="72" viewBox="0 0 260 72" fill="none" xmlns="http://www.w3.org/2000/svg">
<path d="M40.8697 24.9954C41.8384 25.4895 42.7332 26.1076 43.5331 26.829C44.7599 22.6858 45.1633 18.371 44.7686 14.1322C43.9934 13.7975 43.1984 13.5026 42.3864 13.2497C41.3922 8.82317 39.424 4.50352 36.705 0.756258C36.2285 0.737173 35.7496 0.727539 35.2685 0.727539C33.6197 0.727539 31.9973 0.840661 30.4087 1.05959C33.428 4.30978 35.5938 8.1706 36.8268 12.2955C37.6964 12.3434 38.591 12.4625 39.4816 12.6303L39.5027 12.6374C39.5147 12.6416 39.5269 12.646 39.5391 12.6506L39.5598 12.6586L39.5709 12.663L39.5928 12.6722C40.7884 16.4399 41.2721 20.5023 40.8988 24.6858C40.8896 24.7892 40.8799 24.8924 40.8697 24.9954Z" fill="#08080E"/>
<path d="M37.8882 23.9331C36.8816 19.7113 35.0687 15.754 32.5969 12.2655C31.7582 12.3632 30.9223 12.5053 30.0926 12.6923C27.0235 9.3615 23.167 6.60831 18.9469 4.72285C17.0746 5.70188 15.3011 6.84409 13.6454 8.13061C17.8769 9.43671 21.6756 11.6948 24.8008 14.6457C25.5778 14.2524 26.412 13.9082 27.2672 13.6083C27.2875 13.6041 27.3082 13.6002 27.3292 13.5968C27.3474 13.5938 27.3658 13.5912 27.3845 13.589C30.3038 16.2541 32.7538 19.5304 34.5224 23.34C34.5732 23.4494 34.6233 23.559 34.6727 23.6687C34.8702 23.6594 35.0688 23.6546 35.2685 23.6546C36.1674 23.6546 37.0439 23.7507 37.8882 23.9331Z" fill="#08080E"/>
<path d="M31.5598 24.2214C28.5709 21.0534 25.0112 18.5216 21.113 16.7303C20.4356 17.2342 19.7827 17.7752 19.1577 18.352C14.8378 17.0031 10.1254 16.5467 5.53148 17.022C4.4011 18.7896 3.42396 20.6646 2.61888 22.6284C6.94108 21.6403 11.365 21.6956 15.5515 22.6896C16.0278 21.9605 16.5782 21.2454 17.1689 20.5581C17.1795 20.5485 17.1903 20.5391 17.2014 20.5298C17.2204 20.5138 17.2402 20.498 17.2608 20.4826C21.1215 21.3311 24.8815 22.9434 28.3179 25.3583C28.4248 25.4334 28.531 25.5091 28.6367 25.5853C29.5381 25.0101 30.5193 24.5487 31.5598 24.2214Z" fill="#08080E"/>
<path d="M26.2151 27.6069C22.036 26.3527 17.6797 25.9379 13.4008 26.3363C13.0661 27.1115 12.7711 27.9065 12.5182 28.7185C8.09454 29.7121 3.77755 31.6784 0.0319604 34.3947C0.0081067 34.9268 -0.00390625 35.462 -0.00390625 36C-0.00390625 37.5985 0.102445 39.1723 0.30843 40.7145C3.56273 37.6857 7.43082 35.5136 11.564 34.278C11.612 33.4085 11.731 32.5139 11.8989 31.6233C11.9108 31.5866 11.9248 31.5495 11.9408 31.5121C15.7085 30.3165 19.7709 29.8328 23.9544 30.206C24.0848 30.2176 24.2149 30.2301 24.3447 30.2433C24.8521 29.2824 25.4826 28.3967 26.2151 27.6069Z" fill="#08080E"/>
<path d="M23.2477 33.176C18.9955 34.1897 15.0124 36.0214 11.5063 38.5198C11.6063 39.3582 11.7507 40.1938 11.9399 41.023C8.59624 44.1207 5.83977 48.0142 3.96489 52.2708C4.94629 54.1551 6.09286 55.9396 7.38535 57.6053C8.67392 53.321 10.9367 49.4729 13.9076 46.3095C13.5122 45.5336 13.1658 44.7002 12.8636 43.8458C12.8555 43.8081 12.8489 43.769 12.8439 43.7286C15.5012 40.8022 18.7709 38.3433 22.5757 36.5645C22.6935 36.5094 22.8114 36.4551 22.9296 36.4017C22.9253 36.2683 22.9232 36.1344 22.9232 36C22.9232 35.0283 23.0354 34.0829 23.2477 33.176Z" fill="#08080E"/>
<path d="M23.4397 39.5449C20.2819 42.5415 17.7613 46.1065 15.9812 50.0076C16.487 50.6837 17.0298 51.3352 17.6083 51.9586C16.2539 56.3376 15.8161 61.1166 16.3342 65.7649C18.1125 66.8984 19.9992 67.877 21.9752 68.6816C20.9284 64.3001 20.958 59.8056 21.9556 55.5531C21.2252 55.0787 20.5086 54.5303 19.8197 53.9415C19.8033 53.9234 19.7873 53.9046 19.7715 53.885L19.7618 53.8728C19.7558 53.8652 19.7499 53.8576 19.744 53.8498C20.5821 49.9868 22.1842 46.2225 24.5899 42.7796C24.6524 42.6901 24.7153 42.601 24.7786 42.5124C24.2088 41.5964 23.7555 40.6003 23.4397 39.5449Z" fill="#08080E"/>
<path d="M26.8097 44.992C25.5878 49.1467 25.1935 53.4719 25.6005 57.7189C26.3765 58.0515 27.1723 58.3443 27.985 58.595C29.0065 63.0862 31.0315 67.4644 33.8252 71.2434C34.3039 71.2627 34.7851 71.2724 35.2685 71.2724C36.9308 71.2724 38.5662 71.1574 40.1672 70.935C37.0497 67.6555 34.8147 63.7333 33.5471 59.5342C32.6774 59.4886 31.7826 59.372 30.8915 59.2065C30.8548 59.1946 30.8177 59.1808 30.7802 59.1649C29.5745 55.4004 29.0799 51.3394 29.4417 47.1549C29.4491 47.0694 29.4568 46.9841 29.4649 46.8989C28.4955 46.3816 27.6032 45.7387 26.8097 44.992Z" fill="#08080E"/>
<path d="M32.4887 48.0311C33.5107 52.2172 35.3262 56.139 37.7901 59.5967C38.6285 59.4967 39.4642 59.3524 40.2933 59.1631C43.4325 62.5515 47.3889 65.3369 51.7122 67.213C53.5908 66.2212 55.3691 65.0648 57.0277 63.763C52.6824 62.4825 48.7805 60.2015 45.5798 57.1955C44.8038 57.5908 43.9705 57.9372 43.1161 58.2394C43.1089 58.241 43.1017 58.2425 43.0945 58.2439C43.0827 58.2462 43.0708 58.2484 43.0588 58.2504C43.0392 58.2537 43.0192 58.2566 42.9989 58.2592C40.0725 55.6018 37.6136 52.3322 35.8348 48.5274C35.805 48.4637 35.7755 48.4 35.7462 48.3362C35.5877 48.3423 35.4285 48.3453 35.2685 48.3453C34.3126 48.3453 33.3821 48.2367 32.4887 48.0311Z" fill="#08080E"/>
<path d="M38.9344 47.7919C41.9057 50.8905 45.4273 53.3675 49.2762 55.1237C49.9522 54.6179 50.6038 54.0751 51.2272 53.4966C55.6412 54.8619 60.4616 55.2958 65.145 54.7581C66.2656 52.977 67.2314 51.0887 68.0233 49.1121C63.6187 50.1768 59.0977 50.1525 54.8216 49.1493C54.3473 49.8797 53.7988 50.5964 53.21 51.2853C53.1814 51.3112 53.1508 51.3364 53.1183 51.361C49.2554 50.5228 45.491 48.9207 42.0481 46.515C41.9996 46.4811 41.9512 46.4471 41.9029 46.413C40.9884 46.9968 39.9918 47.4636 38.9344 47.7919Z" fill="#08080E"/>
<path d="M44.3799 44.3301C48.498 45.5245 52.7812 45.9075 56.9874 45.5044C57.32 44.7284 57.6129 43.9326 57.8635 43.1199C62.3572 42.0978 66.738 40.0711 70.5184 37.275C70.5334 36.8518 70.5409 36.4268 70.5409 36C70.5409 34.2877 70.4189 32.604 70.1831 30.957C66.9079 34.0645 62.9931 36.2928 58.8027 37.5578C58.7571 38.4275 58.6405 39.3223 58.475 40.2133C58.4711 40.2256 58.4669 40.2379 58.4625 40.2503L58.4583 40.2617L58.4522 40.2782C58.4464 40.2936 58.4401 40.3092 58.4334 40.3247C54.669 41.5304 50.6079 42.025 46.4234 41.6632C46.3653 41.6581 46.3072 41.653 46.2492 41.6476C45.7455 42.6249 45.1152 43.5263 44.3799 44.3301Z" fill="#08080E"/>
<path d="M47.3448 38.5758C51.501 37.5611 55.3973 35.7642 58.8376 33.3266C58.7398 32.4879 58.5977 31.652 58.4107 30.8223C61.786 27.7121 64.5683 23.7933 66.4554 19.507C65.4662 17.6403 64.3143 15.873 63.0185 14.2241C61.7199 18.5163 59.4432 22.3682 56.4574 25.5305C56.8507 26.3075 57.1948 27.1418 57.4946 27.997C57.5027 28.0347 57.5092 28.0738 57.5141 28.1143C54.8488 31.0335 51.5725 33.4836 47.763 35.2521C47.7074 35.278 47.6517 35.3036 47.5959 35.3291C47.6078 35.5512 47.6139 35.7749 47.6139 36C47.6139 36.8833 47.5211 37.745 47.3448 38.5758Z" fill="#08080E"/>
<path d="M47.009 32.1723C50.1185 29.2081 52.607 25.6911 54.3747 21.8445C53.8708 21.1671 53.3296 20.5141 52.7528 19.8891C54.1127 15.5343 54.5655 10.7807 54.0712 6.15155C52.3008 5.03398 50.4241 4.06957 48.4597 3.27692C49.4652 7.62241 49.4149 12.0728 48.4152 16.283C49.1444 16.7593 49.8596 17.3097 50.5469 17.9003C50.5727 17.929 50.5979 17.9597 50.6224 17.9922C49.7738 21.8529 48.1615 25.6129 45.7466 29.0494C45.6998 29.1159 45.6528 29.1822 45.6057 29.2482C46.1947 30.1482 46.6693 31.1298 47.009 32.1723Z" fill="#08080E"/>
<path d="M95.7003 25.0235L92.6399 42.3358H112.412L111.662 46.6263H86.4591L90.2696 25.0235H95.7003Z" fill="#08080E"/>
<path d="M125.911 25.0235L122.101 46.6263H116.67L120.48 25.0235H125.911Z" fill="#08080E"/>
<path d="M159.314 25.0235L158.564 29.3141H147.072L144.012 46.6263H138.581L141.642 29.3141H129.97L130.72 25.0235H159.314Z" fill="#08080E"/>
<path d="M193.073 25.0235L189.263 46.6263H183.832L185.362 37.9552H173.391L169.82 33.6647H186.112L187.643 25.0235H193.073ZM169.85 25.0235L166.04 46.6263H160.609L164.42 25.0235H169.85Z" fill="#08080E"/>
<path d="M220.494 25.0235C221.394 25.0235 222.215 25.2036 222.955 25.5636C223.695 25.9037 224.305 26.3737 224.785 26.9738C225.285 27.5739 225.635 28.284 225.835 29.1041C226.055 29.9042 226.085 30.7543 225.925 31.6544L224.455 40.0255C224.295 40.9456 223.965 41.8057 223.465 42.6058C222.985 43.4059 222.385 44.106 221.664 44.7061C220.964 45.3062 220.184 45.7762 219.324 46.1163C218.464 46.4563 217.584 46.6263 216.684 46.6263H201.232C200.332 46.6263 199.512 46.4563 198.772 46.1163C198.031 45.7762 197.411 45.3062 196.911 44.7061C196.411 44.106 196.061 43.4059 195.861 42.6058C195.661 41.8057 195.641 40.9456 195.801 40.0255L197.271 31.6544C197.431 30.7543 197.751 29.9042 198.231 29.1041C198.732 28.284 199.332 27.5739 200.032 26.9738C200.732 26.3737 201.512 25.9037 202.372 25.5636C203.252 25.2036 204.142 25.0235 205.042 25.0235H220.494ZM220.584 31.2343C220.684 30.7143 220.574 30.2642 220.254 29.8842C219.954 29.5041 219.534 29.3141 218.994 29.3141H205.042C204.502 29.3141 204.012 29.5041 203.572 29.8842C203.132 30.2642 202.862 30.7143 202.762 31.2343L201.172 40.3855C201.072 40.9056 201.172 41.3557 201.472 41.7357C201.772 42.1158 202.192 42.3158 202.732 42.3358H216.684C217.224 42.3158 217.714 42.1158 218.154 41.7357C218.614 41.3557 218.894 40.9056 218.994 40.3855L220.584 31.2343Z" fill="#08080E"/>
<path d="M260 25.0235L259.25 29.3141H238.577C238.137 29.3141 237.737 29.4741 237.377 29.7942C237.017 30.0942 236.787 30.4642 236.687 30.9043L236.477 32.0745C236.397 32.5145 236.487 32.8946 236.747 33.2146C237.007 33.5146 237.357 33.6647 237.797 33.6647H253.999C254.98 33.6647 255.79 33.8047 256.43 34.0847C257.09 34.3447 257.6 34.7148 257.96 35.1949C258.32 35.6749 258.54 36.255 258.62 36.9351C258.72 37.6152 258.7 38.3653 258.56 39.1854L258.23 41.0756C258.11 41.7557 257.88 42.4258 257.54 43.0859C257.22 43.746 256.79 44.346 256.25 44.8861C255.71 45.4062 255.06 45.8262 254.299 46.1463C253.559 46.4663 252.699 46.6263 251.719 46.6263H229.036L229.786 42.3358H251.029C251.469 42.3358 251.869 42.1858 252.229 41.8857C252.589 41.5657 252.809 41.1856 252.889 40.7456L253.099 39.5454C253.179 39.1054 253.089 38.7353 252.829 38.4353C252.589 38.1152 252.249 37.9552 251.809 37.9552H235.607C234.847 37.9552 234.147 37.8452 233.507 37.6252C232.867 37.3851 232.327 37.0551 231.887 36.635C231.466 36.215 231.166 35.7149 230.986 35.1348C230.806 34.5548 230.776 33.9047 230.896 33.1846L231.406 30.3042C231.546 29.5441 231.817 28.844 232.217 28.204C232.617 27.5439 233.107 26.9838 233.687 26.5237C234.287 26.0437 234.947 25.6736 235.667 25.4136C236.387 25.1536 237.127 25.0235 237.887 25.0235H260Z" fill="#08080E"/>
</svg>
