<svg width="190" height="117" viewBox="0 0 190 117" fill="none" xmlns="http://www.w3.org/2000/svg">
<path d="M10.1177 93L6.76701 112.233H28.4148L27.5936 117H0L4.17189 93H10.1177Z" fill="#08080E"/>
<path d="M43.1936 93L39.0217 117H33.076L37.2479 93H43.1936Z" fill="#08080E"/>
<path d="M79.7646 93L78.9434 97.7667H66.362L63.0114 117H57.0656L60.4163 97.7667H47.6378L48.459 93H79.7646Z" fill="#08080E"/>
<path d="M116.726 93L112.554 117H106.608L108.283 107.367H95.1764L91.2673 102.6H109.105L110.78 93H116.726ZM91.3002 93L87.1283 117H81.1825L85.3544 93H91.3002Z" fill="#08080E"/>
<path d="M146.747 93C147.733 93 148.631 93.2 149.441 93.6C150.251 93.9778 150.919 94.5 151.445 95.1667C151.992 95.8333 152.376 96.6222 152.595 97.5333C152.836 98.4222 152.868 99.3667 152.693 100.367L151.084 109.667C150.908 110.689 150.547 111.644 150 112.533C149.474 113.422 148.817 114.2 148.029 114.867C147.262 115.533 146.408 116.056 145.466 116.433C144.525 116.811 143.561 117 142.576 117H125.658C124.673 117 123.775 116.811 122.964 116.433C122.154 116.056 121.475 115.533 120.928 114.867C120.38 114.2 119.997 113.422 119.778 112.533C119.559 111.644 119.537 110.689 119.712 109.667L121.322 100.367C121.497 99.3667 121.847 98.4222 122.373 97.5333C122.921 96.6222 123.578 95.8333 124.344 95.1667C125.111 94.5 125.965 93.9778 126.906 93.6C127.87 93.2 128.844 93 129.83 93H146.747ZM146.846 99.9C146.955 99.3222 146.835 98.8222 146.485 98.4C146.156 97.9778 145.696 97.7667 145.105 97.7667H129.83C129.239 97.7667 128.702 97.9778 128.22 98.4C127.738 98.8222 127.443 99.3222 127.333 99.9L125.592 110.067C125.483 110.644 125.592 111.144 125.921 111.567C126.249 111.989 126.709 112.211 127.301 112.233H142.576C143.167 112.211 143.703 111.989 144.185 111.567C144.689 111.144 144.995 110.644 145.105 110.067L146.846 99.9Z" fill="#08080E"/>
<path d="M190 93L189.179 97.7667H166.545C166.064 97.7667 165.626 97.9444 165.232 98.3C164.837 98.6333 164.585 99.0444 164.476 99.5333L164.246 100.833C164.158 101.322 164.257 101.744 164.542 102.1C164.826 102.433 165.21 102.6 165.691 102.6H183.43C184.503 102.6 185.39 102.756 186.091 103.067C186.814 103.356 187.372 103.767 187.766 104.3C188.16 104.833 188.401 105.478 188.489 106.233C188.598 106.989 188.577 107.822 188.423 108.733L188.062 110.833C187.931 111.589 187.679 112.333 187.306 113.067C186.956 113.8 186.485 114.467 185.894 115.067C185.303 115.644 184.591 116.111 183.759 116.467C182.948 116.822 182.007 117 180.934 117H156.099L156.921 112.233H180.178C180.66 112.233 181.098 112.067 181.492 111.733C181.886 111.378 182.127 110.956 182.215 110.467L182.445 109.133C182.532 108.644 182.434 108.233 182.149 107.9C181.886 107.544 181.514 107.367 181.032 107.367H163.293C162.461 107.367 161.695 107.244 160.994 107C160.293 106.733 159.702 106.367 159.22 105.9C158.76 105.433 158.432 104.878 158.235 104.233C158.037 103.589 158.005 102.867 158.136 102.067L158.694 98.8667C158.848 98.0222 159.143 97.2444 159.581 96.5333C160.019 95.8 160.556 95.1778 161.191 94.6667C161.848 94.1333 162.571 93.7222 163.359 93.4333C164.147 93.1444 164.958 93 165.79 93H190Z" fill="#08080E"/>
<path d="M101.352 27.5205C102.45 28.0808 103.465 28.7818 104.372 29.5998C105.764 24.9013 106.221 20.0083 105.773 15.2013C104.894 14.8217 103.993 14.4873 103.072 14.2005C101.944 9.18069 99.7125 4.28208 96.629 0.0325684C96.0887 0.0109253 95.5456 0 95 0C93.1302 0 91.2904 0.128284 89.4888 0.37655C92.9128 4.06237 95.3689 8.44066 96.7672 13.1184C97.7533 13.1727 98.7678 13.3078 99.7777 13.4981L99.8017 13.5062C99.8153 13.5109 99.8291 13.5158 99.843 13.5211L99.8664 13.5301L99.879 13.5352L99.9039 13.5456C101.26 17.8183 101.808 22.4252 101.385 27.1694C101.375 27.2866 101.363 27.4037 101.352 27.5205Z" fill="#08080E"/>
<path d="M97.9708 26.3158C96.8293 21.5282 94.7734 17.0405 91.9703 13.0844C91.0192 13.1952 90.0712 13.3563 89.1304 13.5684C85.6499 9.79117 81.2765 6.66897 76.4908 4.5308C74.3675 5.64105 72.3564 6.93635 70.4787 8.39531C75.2774 9.87646 79.5853 12.4372 83.1292 15.7836C84.0105 15.3376 84.9565 14.9473 85.9263 14.6072C85.9493 14.6024 85.9727 14.598 85.9966 14.5941C86.0172 14.5908 86.0381 14.5878 86.0593 14.5852C89.3698 17.6076 92.1483 21.3231 94.1539 25.6432C94.2115 25.7673 94.2683 25.8916 94.3244 26.016C94.5482 26.0054 94.7735 26 95 26C96.0194 26 97.0133 26.1089 97.9708 26.3158Z" fill="#08080E"/>
<path d="M90.7943 26.6427C87.4047 23.0501 83.3679 20.179 78.9473 18.1476C78.1791 18.7191 77.4386 19.3326 76.7298 19.9867C71.8309 18.457 66.487 17.9394 61.2773 18.4784C59.9954 20.4829 58.8873 22.6093 57.9743 24.8362C62.8758 23.7158 67.8927 23.7784 72.6403 24.9057C73.1805 24.0789 73.8046 23.2678 74.4745 22.4884C74.4865 22.4776 74.4987 22.4669 74.5113 22.4563C74.5329 22.4382 74.5554 22.4203 74.5787 22.4028C78.9568 23.3651 83.2208 25.1935 87.1178 27.9321C87.239 28.0172 87.3595 28.1031 87.4793 28.1895C88.5016 27.5372 89.6142 27.0139 90.7943 26.6427Z" fill="#08080E"/>
<path d="M84.7331 30.482C79.9939 29.0597 75.0537 28.5893 70.2013 29.0411C69.8217 29.9202 69.4873 30.8217 69.2005 31.7426C64.1839 32.8694 59.2883 35.0992 55.0407 38.1796C55.0136 38.783 55 39.3899 55 40C55 41.8128 55.1206 43.5975 55.3542 45.3465C59.0447 41.9116 63.4312 39.4484 68.1184 38.0473C68.1728 37.0612 68.3078 36.0467 68.4981 35.0368C68.5117 34.9952 68.5275 34.9531 68.5456 34.9106C72.8183 33.5548 77.4252 33.0063 82.1694 33.4295C82.3173 33.4427 82.4648 33.4568 82.6121 33.4717C83.1875 32.3821 83.9024 31.3776 84.7331 30.482Z" fill="#08080E"/>
<path d="M81.368 36.7975C76.546 37.9471 72.029 40.0243 68.053 42.8576C68.1664 43.8084 68.33 44.756 68.5446 45.6963C64.7528 49.2091 61.6269 53.6245 59.5007 58.4516C60.6137 60.5885 61.9139 62.6122 63.3796 64.5011C64.8409 59.6426 67.4069 55.2787 70.776 51.6914C70.3277 50.8114 69.9348 49.8664 69.5921 48.8975C69.5829 48.8547 69.5754 48.8104 69.5698 48.7645C72.5833 45.4459 76.2912 42.6574 80.6059 40.6402C80.7395 40.5777 80.8733 40.5162 81.0073 40.4556C81.0024 40.3043 81 40.1524 81 40C81 38.8981 81.1273 37.826 81.368 36.7975Z" fill="#08080E"/>
<path d="M81.5858 44.0201C78.0047 47.4183 75.1462 51.4611 73.1276 55.8851C73.7012 56.6518 74.3167 57.3906 74.9728 58.0976C73.4368 63.0634 72.9404 68.483 73.5279 73.7543C75.5445 75.0398 77.6841 76.1495 79.925 77.062C78.7379 72.0932 78.7714 66.9963 79.9027 62.1738C79.0745 61.6359 78.2618 61.0139 77.4805 60.3462C77.462 60.3257 77.4438 60.3044 77.4259 60.2822L77.4149 60.2684C77.4081 60.2598 77.4014 60.2511 77.3947 60.2422C78.3451 55.8615 80.162 51.5927 82.8901 47.6883C82.961 47.5868 83.0324 47.4858 83.1042 47.3853C82.4579 46.3465 81.9439 45.217 81.5858 44.0201Z" fill="#08080E"/>
<path d="M85.4074 50.1972C84.0218 54.9087 83.5747 59.8138 84.0361 64.6299C84.9162 65.0071 85.8186 65.3391 86.7403 65.6234C87.8987 70.7166 90.1951 75.6816 93.3632 79.9671C93.9061 79.989 94.4518 80 95 80C96.8851 80 98.7396 79.8696 100.555 79.6173C97.0199 75.8984 94.4854 71.4504 93.0479 66.6885C92.0616 66.6368 91.0468 66.5045 90.0364 66.3169C89.9947 66.3035 89.9526 66.2878 89.9101 66.2698C88.5428 62.0007 87.9819 57.3953 88.3922 52.65C88.4006 52.5531 88.4094 52.4563 88.4185 52.3597C87.3192 51.7731 86.3072 51.044 85.4074 50.1972Z" fill="#08080E"/>
<path d="M91.8476 53.6436C93.0065 58.3909 95.0654 62.8382 97.8596 66.7594C98.8104 66.646 99.758 66.4824 100.698 66.2678C104.258 70.1103 108.745 73.269 113.648 75.3965C115.778 74.2718 117.795 72.9604 119.676 71.4841C114.748 70.0321 110.323 67.4453 106.693 64.0364C105.813 64.4847 104.868 64.8775 103.899 65.2202C103.891 65.222 103.883 65.2237 103.875 65.2253C103.862 65.2279 103.848 65.2304 103.834 65.2327C103.812 65.2365 103.79 65.2398 103.767 65.2426C100.448 62.2291 97.6594 58.5212 95.6421 54.2064C95.6084 54.1343 95.5749 54.062 95.5417 53.9897C95.362 53.9966 95.1814 54 95 54C93.916 54 92.8608 53.8768 91.8476 53.6436Z" fill="#08080E"/>
<path d="M99.1572 53.3724C102.527 56.8864 106.52 59.6954 110.885 61.6869C111.652 61.1133 112.391 60.4978 113.098 59.8417C118.103 61.39 123.57 61.882 128.881 61.2723C130.152 59.2525 131.247 57.1111 132.145 54.8696C127.15 56.077 122.023 56.0494 117.174 54.9118C116.636 55.7401 116.014 56.5528 115.346 57.334C115.314 57.3634 115.279 57.392 115.242 57.4198C110.862 56.4694 106.593 54.6525 102.688 51.9244C102.633 51.886 102.578 51.8474 102.524 51.8087C101.487 52.4708 100.356 53.0001 99.1572 53.3724Z" fill="#08080E"/>
<path d="M105.333 49.4466C110.003 50.8012 114.86 51.2354 119.63 50.7783C120.007 49.8983 120.339 48.9958 120.623 48.0742C125.719 46.9152 130.687 44.6168 134.974 41.4459C134.991 40.966 135 40.484 135 40C135 38.0583 134.862 36.1489 134.594 34.2811C130.88 37.8051 126.441 40.3321 121.688 41.7666C121.637 42.7529 121.504 43.7677 121.317 44.7781C121.312 44.792 121.308 44.806 121.303 44.82L121.298 44.833L121.291 44.8517C121.284 44.8692 121.277 44.8868 121.27 44.9044C117.001 46.2717 112.395 46.8326 107.65 46.4222C107.584 46.4165 107.518 46.4107 107.452 46.4046C106.881 47.5129 106.166 48.5351 105.333 49.4466Z" fill="#08080E"/>
<path d="M108.695 42.921C113.408 41.7704 117.827 39.7326 121.728 36.9683C121.617 36.0173 121.456 35.0692 121.244 34.1284C125.072 30.6013 128.227 26.1573 130.367 21.2965C129.245 19.1796 127.939 17.1755 126.469 15.3055C124.997 20.173 122.415 24.5412 119.029 28.1273C119.475 29.0085 119.865 29.9545 120.205 30.9243C120.214 30.9671 120.222 31.0115 120.227 31.0574C117.205 34.3678 113.489 37.1463 109.169 39.1519C109.106 39.1812 109.043 39.2103 108.98 39.2392C108.993 39.4911 109 39.7448 109 40C109 41.0017 108.895 41.9789 108.695 42.921Z" fill="#08080E"/>
<path d="M108.314 35.6593C111.84 32.2978 114.662 28.3094 116.667 23.9473C116.096 23.179 115.482 22.4386 114.828 21.7298C116.37 16.7913 116.883 11.4005 116.323 6.15099C114.315 4.88363 112.187 3.78997 109.959 2.89108C111.099 7.81899 111.042 12.8658 109.909 17.6403C110.736 18.1805 111.547 18.8046 112.326 19.4745C112.355 19.507 112.384 19.5417 112.412 19.5787C111.449 23.9569 109.621 28.2208 106.882 32.1178C106.829 32.1932 106.776 32.2684 106.723 32.3433C107.391 33.3639 107.929 34.4771 108.314 35.6593Z" fill="#08080E"/>
</svg>
